HIERARCHY
ROOT Hips
{
	OFFSET 0.000000 0.000000 0.000000
	CHANNELS 6 Xposition Yposition Zposition Zrotation Yrotation Xrotation 
	JOINT LHipJoint
	{
		OFFSET 0.000000 0.000000 0.000000
		CHANNELS 3 Zrotation Yrotation Xrotation
		JOINT LeftUpLeg
		{
			OFFSET 1.363060 -1.794630 0.839290
			CHANNELS 3 Zrotation Yrotation Xrotation
			JOINT LeftLeg
			{
				OFFSET 2.448110 -6.726130 0.000000
				CHANNELS 3 Zrotation Yrotation Xrotation
				JOINT LeftFoot
				{
					OFFSET 2.562200 -7.039590 0.000000
					CHANNELS 3 Zrotation Yrotation Xrotation
					JOINT LeftToeBase
					{
						OFFSET 0.157640 -0.433110 2.322550
						CHANNELS 3 Zrotation Yrotation Xrotation
						End Site
						{
							OFFSET 0.000000 0.000000 0.000000
						}
					}
				}
			}
		}
	}
	JOINT RHipJoint
	{
		OFFSET 0.000000 0.000000 0.000000
		CHANNELS 3 Zrotation Yrotation Xrotation
		JOINT RightUpLeg
		{
			OFFSET -1.305520 -1.794630 0.839290
			CHANNELS 3 Zrotation Yrotation Xrotation
			JOINT RightLeg
			{
				OFFSET -2.542530 -6.985550 0.000000
				CHANNELS 3 Zrotation Yrotation Xrotation
				JOINT RightFoot
				{
					OFFSET -2.568260 -7.056230 0.000000
					CHANNELS 3 Zrotation Yrotation Xrotation
					JOINT RightToeBase
					{
						OFFSET -0.164730 -0.452590 2.363150
						CHANNELS 3 Zrotation Yrotation Xrotation
						End Site
						{
							OFFSET 0.000000 0.000000 0.000000
						}
					}
				}
			}
		}
	}
	JOINT LowerBack
	{
		OFFSET 0.000000 0.000000 0.000000
		CHANNELS 3 Zrotation Yrotation Xrotation
		JOINT Spine
		{
			OFFSET 0.028270 2.035590 -0.193380
			CHANNELS 3 Zrotation Yrotation Xrotation
			JOINT Spine1
			{
				OFFSET 0.056720 2.048850 -0.042750
				CHANNELS 3 Zrotation Yrotation Xrotation
				JOINT Neck
				{
					OFFSET 0.000000 0.000000 0.000000
					CHANNELS 3 Zrotation Yrotation Xrotation
					JOINT Neck1
					{
						OFFSET -0.054170 1.746240 0.172020
						CHANNELS 3 Zrotation Yrotation Xrotation
						JOINT Head
						{
							OFFSET 0.104070 1.761360 -0.123970
							CHANNELS 3 Zrotation Yrotation Xrotation
							End Site
							{
								OFFSET 0.000000 0.000000 0.000000
							}
						}
					}
				}
				JOINT LeftShoulder
				{
					OFFSET 0.000000 0.000000 0.000000
					CHANNELS 3 Zrotation Yrotation Xrotation
					JOINT LeftArm
					{
						OFFSET 3.362410 1.200890 -0.311210
						CHANNELS 3 Zrotation Yrotation Xrotation
						JOINT LeftForeArm
						{
							OFFSET 4.983000 -0.000000 -0.000000
							CHANNELS 3 Zrotation Yrotation Xrotation
							JOINT LeftHand
							{
								OFFSET 3.483560 -0.000000 -0.000000
								CHANNELS 3 Zrotation Yrotation Xrotation
								JOINT LeftFingerBase
								{
									OFFSET 0.000000 0.000000 0.000000
									CHANNELS 3 Zrotation Yrotation Xrotation
									JOINT LeftHandIndex1
									{
										OFFSET 0.715260 -0.000000 -0.000000
										CHANNELS 3 Zrotation Yrotation Xrotation
										End Site
										{
											OFFSET 0.000000 0.000000 0.000000
										}
									}
								}
								JOINT LThumb
								{
									OFFSET 0.000000 0.000000 0.000000
									CHANNELS 3 Zrotation Yrotation Xrotation
									End Site
									{
										OFFSET 0.000000 0.000000 0.000000
									}
								}
							}
						}
					}
				}
				JOINT RightShoulder
				{
					OFFSET 0.000000 0.000000 0.000000
					CHANNELS 3 Zrotation Yrotation Xrotation
					JOINT RightArm
					{
						OFFSET -3.136600 1.374050 -0.404650
						CHANNELS 3 Zrotation Yrotation Xrotation
						JOINT RightForeArm
						{
							OFFSET -5.241900 -0.000000 -0.000000
							CHANNELS 3 Zrotation Yrotation Xrotation
							JOINT RightHand
							{
								OFFSET -3.444170 -0.000000 -0.000000
								CHANNELS 3 Zrotation Yrotation Xrotation
								JOINT RightFingerBase
								{
									OFFSET 0.000000 0.000000 0.000000
									CHANNELS 3 Zrotation Yrotation Xrotation
									JOINT RightHandIndex1
									{
										OFFSET -0.622530 -0.000000 -0.000000
										CHANNELS 3 Zrotation Yrotation Xrotation
										End Site
										{
											OFFSET 0.000000 0.000000 0.000000
										}
									}
								}
								JOINT RThumb
								{
									OFFSET 0.000000 0.000000 0.000000
									CHANNELS 3 Zrotation Yrotation Xrotation
									End Site
									{
										OFFSET 0.000000 0.000000 0.000000
									}
								}
							}
						}
					}
				}
			}
		}
	}
}
MOTION
Frames: 7
Frame Time: 0.016667
-1.800359 17.336697 24.090495 0.737760 -5.485494 9.751687 -2.409267 14.938870 -1.106567 -21.622089 -3.857798 -8.883712 -9.396645 -6.953592 -18.726366 1.195322 9.136750 20.858275 0.000000 0.000000 0.000000 7.093995 -18.016660 0.305108 20.005129 22.460854 -17.719150 -12.868845 -12.490076 72.983705 21.835891 -19.219031 -8.036315 0.000000 0.000000 0.000000 -3.680014 1.259745 7.589076 3.797960 0.965945 -0.460037 0.048197 1.577169 -6.513712 -0.928350 0.320738 0.039291 2.928692 0.063306 1.814933 0.000000 0.000000 0.000000 -0.823654 13.361499 10.304583 -69.956676 -6.402541 8.124656 9.191765 -89.932790 0.124772 5.301776 -11.831549 0.056985 5.365715 -11.808141 0.000000 0.000000 0.000000 0.000000 0.000000 0.000000 0.000000 2.362580 -14.119625 7.593379 58.055008 4.921296 17.330712 22.261902 63.329495 0.459964 0.291582 12.564613 0.227861 0.282143 12.570911 0.000000 0.000000 0.000000 0.000000 0.000000 0.000000 0.000000 
-1.775844 17.391429 24.318096 1.022317 -5.279159 9.559939 -2.569880 14.748228 -1.242786 -21.963346 -3.743532 -8.424549 -8.849949 -6.408368 -17.044613 0.883619 7.897520 18.224525 0.000000 0.000000 0.000000 6.610484 -17.594755 0.898895 19.057758 21.580077 -17.308850 -11.921922 -13.108029 71.588051 21.509208 -19.512229 -6.739970 0.000000 0.000000 0.000000 -2.841981 1.331023 7.046424 2.696968 0.824441 0.791246 -0.351245 1.481565 -6.703681 -0.738584 0.304183 0.154156 3.007131 0.060464 1.861833 0.000000 0.000000 0.000000 -0.741014 13.230951 10.021738 -69.499233 -6.482758 9.408445 7.921703 -89.236035 0.136465 5.311189 -12.235990 0.062326 5.379841 -12.211587 0.000000 0.000000 0.000000 0.000000 0.000000 0.000000 0.000000 1.641628 -14.052809 7.515215 59.638850 4.938839 17.606808 22.039637 65.044530 0.445521 0.155224 12.546067 0.220592 0.144116 12.551908 0.000000 0.000000 0.000000 0.000000 0.000000 0.000000 0.000000 
-1.763754 17.436756 24.527087 1.244492 -4.895205 9.419606 -2.683231 14.443735 -1.443371 -22.211201 -3.645875 -7.966824 -8.342025 -5.934160 -15.485003 0.651153 6.754449 15.880377 0.000000 0.000000 0.000000 6.326540 -16.976634 1.299441 18.082958 20.568956 -16.790816 -10.836696 -13.869925 70.188841 21.348166 -19.863646 -5.787754 0.000000 0.000000 0.000000 -2.267456 1.337694 6.777666 1.929403 0.690169 1.530668 -0.697727 1.374429 -6.700927 -0.504424 0.284234 0.197660 3.071577 0.057672 1.916345 0.000000 0.000000 0.000000 -0.531469 12.989027 9.812393 -69.181116 -6.475197 10.753087 6.430660 -88.438910 0.157409 5.241062 -12.627543 0.072382 5.313020 -12.603000 0.000000 0.000000 0.000000 0.000000 0.000000 0.000000 0.000000 0.800503 -13.905713 7.448171 61.283472 4.877677 18.043105 21.524354 67.255249 0.423867 -0.028491 12.430630 0.209727 -0.041695 12.435833 0.000000 0.000000 0.000000 0.000000 0.000000 0.000000 0.000000 
-1.757626 17.476563 24.722857 1.623437 -4.988772 8.898356 -2.116363 13.628413 -2.511183 -23.310147 -2.454754 -5.828266 -7.486402 -5.494396 -14.748493 0.498269 6.194560 14.528010 0.000000 0.000000 0.000000 5.951978 -16.213260 1.775233 17.140569 19.532849 -15.950289 -10.037163 -14.435187 68.836551 20.915224 -19.998286 -4.629112 0.000000 0.000000 0.000000 -2.144186 1.452776 7.036616 1.353925 0.692438 2.000237 -0.991716 1.392247 -6.609064 -0.315103 0.271537 0.208471 3.157287 0.054974 1.994064 0.000000 0.000000 0.000000 -0.269496 12.829094 9.658559 -68.950698 -6.530466 11.870108 5.062071 -87.745370 0.174989 5.148706 -12.961159 0.080827 5.223272 -12.936801 0.000000 0.000000 0.000000 0.000000 0.000000 0.000000 0.000000 0.034166 -13.713050 7.358431 62.736422 4.849719 18.302046 21.180874 68.971217 0.405855 -0.167546 12.319787 0.200704 -0.182366 12.324475 0.000000 0.000000 0.000000 0.000000 0.000000 0.000000 0.000000 
-1.757105 17.510181 24.904945 1.843743 -4.795741 8.656643 -1.916659 13.008578 -3.135321 -23.783138 -1.853517 -4.666392 -6.904742 -5.102721 -13.801493 0.378000 5.538755 13.040758 0.000000 0.000000 0.000000 5.870289 -15.377607 2.031619 16.177395 18.460990 -15.221950 -9.119889 -15.107445 67.510443 20.682612 -20.253524 -3.727219 0.000000 0.000000 0.000000 -2.067747 1.444708 7.266035 1.053418 0.624160 2.114488 -1.227076 1.337124 -6.434020 -0.169669 0.262793 0.206941 3.242245 0.050583 2.100571 0.000000 0.000000 0.000000 0.031258 12.646744 9.523190 -68.822377 -6.573994 12.764479 3.907340 -87.169456 0.190479 5.059422 -13.219972 0.088304 5.135826 -13.195943 0.000000 0.000000 0.000000 0.000000 0.000000 0.000000 0.000000 -0.677505 -13.569963 7.291611 63.983283 4.851857 18.436392 20.971085 70.209742 0.391217 -0.264397 12.249285 0.193370 -0.280443 12.253572 0.000000 0.000000 0.000000 0.000000 0.000000 0.000000 0.000000 
-1.754588 17.543107 25.081114 2.025337 -4.665773 8.498763 -1.861749 12.410360 -3.641722 -24.056622 -1.335065 -3.710110 -6.366497 -4.756110 -13.017956 0.285294 5.008494 11.755624 0.000000 0.000000 0.000000 5.903017 -14.588392 2.291711 15.184603 17.482879 -14.609816 -8.265826 -15.676997 66.235340 20.441453 -20.499141 -2.779699 0.000000 0.000000 0.000000 -1.998243 1.422771 7.449552 0.791226 0.550996 2.197704 -1.497821 1.278414 -6.222175 -0.039348 0.255463 0.173910 3.365855 0.045333 2.241703 0.000000 0.000000 0.000000 0.341822 12.573631 9.345629 -68.715328 -6.712785 13.381088 3.142310 -86.796263 0.200385 5.006074 -13.396368 0.093054 5.083885 -13.372497 0.000000 0.000000 0.000000 0.000000 0.000000 0.000000 0.000000 -1.415487 -13.476829 7.283155 65.230088 5.028368 18.084159 21.525568 70.141009 0.389361 -0.235811 12.388584 0.192406 -0.252242 12.392859 0.000000 0.000000 0.000000 0.000000 0.000000 0.000000 0.000000 
-1.750459 17.575021 25.251432 2.167999 -4.601214 8.429031 -1.939197 11.843817 -4.025820 -24.152019 -0.903396 -2.950246 -5.867775 -4.462216 -12.407800 0.214134 4.583242 10.640562 0.000000 0.000000 0.000000 6.039369 -13.852106 2.555261 14.170952 16.604801 -14.121666 -7.480211 -16.150440 65.025836 20.192954 -20.733558 -1.798519 0.000000 0.000000 0.000000 -1.937743 1.381777 7.585156 0.567108 0.467327 2.251142 -1.808885 1.211115 -5.974554 0.082344 0.246996 0.102136 3.525868 0.038762 2.419064 0.000000 0.000000 0.000000 0.662870 12.631393 9.123189 -68.631360 -6.944461 13.707974 2.822035 -86.652233 0.204196 4.997977 -13.487512 0.094827 5.076795 -13.463537 0.000000 0.000000 0.000000 0.000000 0.000000 0.000000 0.000000 -2.192530 -13.443601 7.347745 66.480843 5.413421 17.185546 22.917455 68.614134 0.401384 -0.072558 12.759520 0.198366 -0.088343 12.764187 0.000000 0.000000 0.000000 0.000000 0.000000 0.000000 0.000000 
